<?xml version="1.0" encoding="UTF-8"?>
<svg width="700pt" height="700pt" version="1.1" viewBox="0 0 700 700" xmlns="http://www.w3.org/2000/svg" xmlns:xlink="http://www.w3.org/1999/xlink">
  <defs>
    <symbol id="t" overflow="visible">
      <path d="m14.656-0.875c-0.76172 0.39844-1.5547 0.69531-2.375 0.89062-0.8125 0.19531-1.6641 0.29688-2.5469 0.29688-2.6562 0-4.7617-0.73828-6.3125-2.2188-1.5547-1.4883-2.3281-3.5039-2.3281-6.0469 0-2.5508 0.77344-4.5664 2.3281-6.0469 1.5508-1.4883 3.6562-2.2344 6.3125-2.2344 0.88281 0 1.7344 0.10156 2.5469 0.29688 0.82031 0.19922 1.6133 0.49609 2.375 0.89062v3.2969c-0.76172-0.51953-1.5117-0.89844-2.25-1.1406-0.74219-0.23828-1.5234-0.35938-2.3438-0.35938-1.4688 0-2.625 0.46875-3.4688 1.4062-0.83594 0.9375-1.25 2.2344-1.25 3.8906 0 1.6484 0.41406 2.9375 1.25 3.875 0.84375 0.9375 2 1.4062 3.4688 1.4062 0.82031 0 1.6016-0.11719 2.3438-0.35938 0.73828-0.23828 1.4883-0.61719 2.25-1.1406z"/>
    </symbol>
    <symbol id="b" overflow="visible">
      <path d="m10.719-8.7031c-0.33594-0.15625-0.66797-0.26953-1-0.34375-0.32422-0.082031-0.65625-0.125-1-0.125-0.98047 0-1.7344 0.32031-2.2656 0.95312-0.53125 0.625-0.79688 1.5273-0.79688 2.7031v5.5156h-3.8125v-11.969h3.8125v1.9688c0.48828-0.78125 1.0508-1.3477 1.6875-1.7031 0.64453-0.36328 1.4102-0.54688 2.2969-0.54688 0.13281 0 0.27344 0.007812 0.42188 0.015625 0.14453 0.011719 0.36328 0.03125 0.65625 0.0625z"/>
    </symbol>
    <symbol id="a" overflow="visible">
      <path d="m13.781-6.0156v1.0938h-8.9375c0.09375 0.89844 0.41406 1.5703 0.96875 2.0156 0.55078 0.44922 1.3281 0.67188 2.3281 0.67188 0.80078 0 1.625-0.11719 2.4688-0.35938 0.84375-0.23828 1.7109-0.59766 2.6094-1.0781v2.9531c-0.90625 0.33594-1.8125 0.58984-2.7188 0.76562s-1.8125 0.26562-2.7188 0.26562c-2.1562 0-3.8398-0.54688-5.0469-1.6406-1.1992-1.1016-1.7969-2.6484-1.7969-4.6406 0-1.9453 0.58594-3.4766 1.7656-4.5938 1.1758-1.125 2.8008-1.6875 4.875-1.6875 1.875 0 3.375 0.57031 4.5 1.7031 1.1328 1.125 1.7031 2.6367 1.7031 4.5312zm-3.9375-1.2656c0-0.72656-0.21484-1.3125-0.64062-1.75-0.41797-0.44531-0.96875-0.67188-1.6562-0.67188-0.74219 0-1.3438 0.21094-1.8125 0.625-0.46094 0.41797-0.74609 1.0156-0.85938 1.7969z"/>
    </symbol>
    <symbol id="j" overflow="visible">
      <path d="m7.2031-5.3906c-0.80469 0-1.4062 0.13672-1.8125 0.40625-0.39844 0.27344-0.59375 0.67188-0.59375 1.2031 0 0.48047 0.16016 0.85938 0.48438 1.1406 0.32031 0.27344 0.77344 0.40625 1.3594 0.40625 0.71875 0 1.3203-0.25391 1.8125-0.76562 0.48828-0.51953 0.73438-1.1719 0.73438-1.9531v-0.4375zm5.8438-1.4375v6.8281h-3.8594v-1.7656c-0.51172 0.71875-1.0898 1.2461-1.7344 1.5781-0.63672 0.33203-1.418 0.5-2.3438 0.5-1.2422 0-2.2461-0.35938-3.0156-1.0781-0.77344-0.72656-1.1562-1.6719-1.1562-2.8281 0-1.3945 0.47656-2.4219 1.4375-3.0781 0.96875-0.65625 2.4883-0.98438 4.5625-0.98438h2.25v-0.29688c0-0.60156-0.24219-1.0469-0.71875-1.3281-0.48047-0.28125-1.2266-0.42188-2.2344-0.42188-0.8125 0-1.5742 0.085937-2.2812 0.25-0.71094 0.15625-1.3672 0.40234-1.9688 0.73438v-2.9219c0.82031-0.19531 1.6445-0.34766 2.4688-0.45312 0.82031-0.10156 1.6484-0.15625 2.4844-0.15625 2.1562 0 3.7109 0.42969 4.6719 1.2812 0.95703 0.84375 1.4375 2.2266 1.4375 4.1406z"/>
    </symbol>
    <symbol id="d" overflow="visible">
      <path d="m6.0156-15.359v3.3906h3.9375v2.7344h-3.9375v5.0781c0 0.55469 0.10938 0.92969 0.32812 1.125 0.21875 0.19922 0.65625 0.29688 1.3125 0.29688h1.9688v2.7344h-3.2812c-1.5117 0-2.5859-0.3125-3.2188-0.9375-0.625-0.63281-0.9375-1.707-0.9375-3.2188v-5.0781h-1.9062v-2.7344h1.9062v-3.3906z"/>
    </symbol>
    <symbol id="i" overflow="visible">
      <path d="m9.9688-10.219v-6.4062h3.8594v16.625h-3.8594v-1.7344c-0.52344 0.71094-1.1016 1.2305-1.7344 1.5625-0.63672 0.32031-1.3711 0.48438-2.2031 0.48438-1.4688 0-2.6797-0.58203-3.625-1.75-0.94922-1.1758-1.4219-2.6875-1.4219-4.5312s0.47266-3.3477 1.4219-4.5156c0.94531-1.1758 2.1562-1.7656 3.625-1.7656 0.83203 0 1.5664 0.16797 2.2031 0.5 0.63281 0.32422 1.2109 0.83594 1.7344 1.5312zm-2.5156 7.75c0.82031 0 1.4453-0.29688 1.875-0.89062 0.42578-0.60156 0.64062-1.4727 0.64062-2.6094 0-1.1445-0.21484-2.0156-0.64062-2.6094-0.42969-0.59375-1.0547-0.89062-1.875-0.89062-0.8125 0-1.4336 0.29688-1.8594 0.89062-0.42969 0.59375-0.64062 1.4648-0.64062 2.6094 0 1.1367 0.21094 2.0078 0.64062 2.6094 0.42578 0.59375 1.0469 0.89062 1.8594 0.89062z"/>
    </symbol>
    <symbol id="h" overflow="visible">
      <path d="m8.2031-2.4688c0.82031 0 1.4453-0.29688 1.875-0.89062 0.42578-0.60156 0.64062-1.4727 0.64062-2.6094 0-1.1445-0.21484-2.0156-0.64062-2.6094-0.42969-0.59375-1.0547-0.89062-1.875-0.89062-0.82422 0-1.4531 0.30469-1.8906 0.90625-0.4375 0.59375-0.65625 1.4609-0.65625 2.5938 0 1.1367 0.21875 2.0078 0.65625 2.6094 0.4375 0.59375 1.0664 0.89062 1.8906 0.89062zm-2.5469-7.75c0.53125-0.69531 1.1133-1.207 1.75-1.5312 0.64453-0.33203 1.3828-0.5 2.2188-0.5 1.4688 0 2.6758 0.58984 3.625 1.7656 0.94531 1.168 1.4219 2.6719 1.4219 4.5156s-0.47656 3.3555-1.4219 4.5312c-0.94922 1.168-2.1562 1.75-3.625 1.75-0.83594 0-1.5742-0.16797-2.2188-0.5-0.63672-0.33203-1.2188-0.84766-1.75-1.5469v1.7344h-3.8125v-16.625h3.8125z"/>
    </symbol>
    <symbol id="g" overflow="visible">
      <path d="m0.26562-11.969h3.8281l3.2188 8.125 2.7344-8.125h3.8125l-5.0312 13.094c-0.5 1.332-1.0898 2.2656-1.7656 2.7969-0.66797 0.53125-1.5547 0.79688-2.6562 0.79688h-2.2188v-2.5h1.2031c0.64453 0 1.1133-0.10547 1.4062-0.3125 0.30078-0.21094 0.53125-0.57812 0.6875-1.1094l0.10938-0.34375z"/>
    </symbol>
    <symbol id="f" overflow="visible">
      <path d="m7.8438-8.875c0.86328 0 1.4844-0.16016 1.8594-0.48438 0.375-0.32031 0.5625-0.84766 0.5625-1.5781 0-0.72656-0.1875-1.25-0.5625-1.5625s-0.99609-0.46875-1.8594-0.46875h-1.7188v4.0938zm-1.7188 2.8438v6.0312h-4.1094v-15.953h6.2656c2.1016 0 3.6445 0.35547 4.625 1.0625 0.97656 0.71094 1.4688 1.8242 1.4688 3.3438 0 1.0547-0.25781 1.918-0.76562 2.5938-0.51172 0.67969-1.2773 1.1797-2.2969 1.5 0.5625 0.125 1.0625 0.41797 1.5 0.875 0.44531 0.44922 0.89844 1.1328 1.3594 2.0469l2.2344 4.5312h-4.375l-1.9531-3.9688c-0.38672-0.78906-0.78125-1.332-1.1875-1.625-0.40625-0.28906-0.94531-0.4375-1.6094-0.4375z"/>
    </symbol>
    <symbol id="e" overflow="visible">
      <path d="m9.7031-16.625v2.5156h-2.1094c-0.54297 0-0.92188 0.10156-1.1406 0.29688-0.21094 0.19922-0.3125 0.53906-0.3125 1.0156v0.82812h3.2656v2.7344h-3.2656v9.2344h-3.8281v-9.2344h-1.8906v-2.7344h1.8906v-0.82812c0-1.3008 0.36328-2.2656 1.0938-2.8906 0.72656-0.625 1.8516-0.9375 3.375-0.9375z"/>
    </symbol>
    <symbol id="s" overflow="visible">
      <path d="m1.8438-16.625h3.8125v16.625h-3.8125z"/>
    </symbol>
    <symbol id="c" overflow="visible">
      <path d="m7.5312-9.5156c-0.84375 0-1.4922 0.30859-1.9375 0.92188-0.44922 0.60547-0.67188 1.4805-0.67188 2.625 0 1.1484 0.22266 2.0273 0.67188 2.6406 0.44531 0.60547 1.0938 0.90625 1.9375 0.90625 0.83203 0 1.4688-0.30078 1.9062-0.90625 0.44531-0.61328 0.67188-1.4922 0.67188-2.6406 0-1.1445-0.22656-2.0195-0.67188-2.625-0.4375-0.61328-1.0742-0.92188-1.9062-0.92188zm0-2.7344c2.0508 0 3.6562 0.55859 4.8125 1.6719 1.1641 1.1055 1.75 2.6406 1.75 4.6094s-0.58594 3.5117-1.75 4.625c-1.1562 1.1055-2.7617 1.6562-4.8125 1.6562-2.0625 0-3.6797-0.55078-4.8438-1.6562-1.168-1.1133-1.75-2.6562-1.75-4.625s0.58203-3.5039 1.75-4.6094c1.1641-1.1133 2.7812-1.6719 4.8438-1.6719z"/>
    </symbol>
    <symbol id="r" overflow="visible">
      <path d="m12.922-9.9688c0.48828-0.75 1.0625-1.3164 1.7188-1.7031 0.66406-0.38281 1.3984-0.57812 2.2031-0.57812 1.375 0 2.4219 0.42969 3.1406 1.2812 0.71875 0.84375 1.0781 2.0742 1.0781 3.6875v7.2812h-3.8438v-6.2344c0.007812-0.09375 0.015625-0.1875 0.015625-0.28125v-0.4375c0-0.84375-0.125-1.457-0.375-1.8438-0.25-0.38281-0.65234-0.57812-1.2031-0.57812-0.73047 0-1.293 0.30469-1.6875 0.90625-0.38672 0.59375-0.58984 1.4609-0.60938 2.5938v5.875h-3.8438v-6.2344c0-1.3203-0.11719-2.1758-0.34375-2.5625-0.23047-0.38281-0.63672-0.57812-1.2188-0.57812-0.73047 0-1.2969 0.30469-1.7031 0.90625-0.39844 0.60547-0.59375 1.4648-0.59375 2.5781v5.8906h-3.8438v-11.969h3.8438v1.75c0.46875-0.66406 1.0039-1.1719 1.6094-1.5156 0.61328-0.34375 1.2891-0.51562 2.0312-0.51562 0.82031 0 1.5508 0.19922 2.1875 0.59375 0.63281 0.39844 1.1133 0.96094 1.4375 1.6875z"/>
    </symbol>
    <symbol id="q" overflow="visible">
      <path d="m13.859-7.2812v7.2812h-3.8438v-5.5469c0-1.0508-0.027344-1.7695-0.078125-2.1562-0.042969-0.39453-0.12109-0.6875-0.23438-0.875-0.14844-0.25-0.35156-0.44141-0.60938-0.57812-0.25-0.14453-0.54297-0.21875-0.875-0.21875-0.79297 0-1.418 0.3125-1.875 0.9375-0.46094 0.61719-0.6875 1.4648-0.6875 2.5469v5.8906h-3.8125v-16.625h3.8125v6.4062c0.58203-0.69531 1.1953-1.207 1.8438-1.5312 0.64453-0.33203 1.3594-0.5 2.1406-0.5 1.3828 0 2.4297 0.42969 3.1406 1.2812 0.71875 0.84375 1.0781 2.0742 1.0781 3.6875z"/>
    </symbol>
    <symbol id="p" overflow="visible">
      <path d="m2.0156-15.953h4.5781l5.8125 10.938v-10.938h3.8906v15.953h-4.5938l-5.7969-10.938v10.938h-3.8906z"/>
    </symbol>
    <symbol id="o" overflow="visible">
      <path d="m1.7031-4.6562v-7.3125h3.8438v1.2031c0 0.64844-0.007813 1.4609-0.015625 2.4375v1.9688c0 0.96094 0.023438 1.6523 0.078125 2.0781 0.050781 0.41797 0.13281 0.72656 0.25 0.92188 0.15625 0.25 0.35938 0.44531 0.60938 0.57812 0.25781 0.13672 0.55078 0.20312 0.875 0.20312 0.80078 0 1.4258-0.30469 1.875-0.92188 0.45703-0.61328 0.6875-1.4688 0.6875-2.5625v-5.9062h3.8281v11.969h-3.8281v-1.7344c-0.57422 0.69922-1.1836 1.2148-1.8281 1.5469-0.64844 0.33203-1.3555 0.5-2.125 0.5-1.3867 0-2.4453-0.42188-3.1719-1.2656-0.71875-0.85156-1.0781-2.0859-1.0781-3.7031z"/>
    </symbol>
    <symbol id="n" overflow="visible">
      <path d="m13.859-7.2812v7.2812h-3.8438v-5.5781c0-1.0312-0.027344-1.7383-0.078125-2.125-0.042969-0.39453-0.12109-0.6875-0.23438-0.875-0.14844-0.25-0.35156-0.44141-0.60938-0.57812-0.25-0.14453-0.54297-0.21875-0.875-0.21875-0.79297 0-1.418 0.3125-1.875 0.9375-0.46094 0.61719-0.6875 1.4648-0.6875 2.5469v5.8906h-3.8125v-11.969h3.8125v1.75c0.58203-0.69531 1.1953-1.207 1.8438-1.5312 0.64453-0.33203 1.3594-0.5 2.1406-0.5 1.3828 0 2.4297 0.42969 3.1406 1.2812 0.71875 0.84375 1.0781 2.0742 1.0781 3.6875z"/>
    </symbol>
    <symbol id="m" overflow="visible">
      <path d="m2.0156-15.953h6.8125c2.0312 0 3.5859 0.45312 4.6719 1.3594 1.0938 0.89844 1.6406 2.1797 1.6406 3.8438 0 1.6797-0.54688 2.9688-1.6406 3.875-1.0859 0.89844-2.6406 1.3438-4.6719 1.3438h-2.7031v5.5312h-4.1094zm4.1094 2.9844v4.4531h2.2656c0.80078 0 1.4141-0.19141 1.8438-0.57812 0.4375-0.38281 0.65625-0.9375 0.65625-1.6562 0-0.70703-0.21875-1.2539-0.65625-1.6406-0.42969-0.38281-1.043-0.57812-1.8438-0.57812z"/>
    </symbol>
    <symbol id="l" overflow="visible">
      <path d="m1.8438-11.969h3.8125v11.75c0 1.6016-0.38672 2.8281-1.1562 3.6719-0.76172 0.84375-1.8711 1.2656-3.3281 1.2656h-1.8906v-2.5h0.65625c0.72656 0 1.2266-0.16797 1.5-0.5 0.26953-0.32422 0.40625-0.96875 0.40625-1.9375zm0-4.6562h3.8125v3.125h-3.8125z"/>
    </symbol>
    <symbol id="k" overflow="visible">
      <path d="m11.5-11.594v3.125c-0.52344-0.35156-1.043-0.61328-1.5625-0.78125-0.52344-0.17578-1.0625-0.26562-1.625-0.26562-1.0742 0-1.9062 0.3125-2.5 0.9375s-0.89062 1.4961-0.89062 2.6094c0 1.1172 0.29688 1.9844 0.89062 2.6094s1.4258 0.9375 2.5 0.9375c0.59375 0 1.1562-0.085937 1.6875-0.26562 0.53906-0.17578 1.0391-0.44141 1.5-0.79688v3.125c-0.59375 0.23047-1.1992 0.39453-1.8125 0.5-0.61719 0.11328-1.2344 0.17188-1.8594 0.17188-2.1562 0-3.8438-0.55078-5.0625-1.6562-1.2188-1.1133-1.8281-2.6562-1.8281-4.625s0.60938-3.5039 1.8281-4.6094c1.2188-1.1133 2.9062-1.6719 5.0625-1.6719 0.625 0 1.2383 0.058594 1.8438 0.17188 0.61328 0.10547 1.2227 0.26562 1.8281 0.48438z"/>
    </symbol>
  </defs>
  <g>
    <path d="m491.04 198.57c6.9805-46.602-1.9141-80.734-24.68-93.875l-22.73-13.125c-22.762-13.141-56.773-3.7773-93.633 25.566-36.867-29.344-70.867-38.703-93.637-25.566l-22.73 13.125c-22.762 13.141-31.656 47.273-24.676 93.875-43.844 17.254-68.957 42.02-68.957 68.305v26.25c0 26.285 25.113 51.051 68.957 68.305-6.9805 46.602 1.9141 80.73 24.68 93.871l22.73 13.125-0.003907 0.003907c7.0391 3.957 15.008 5.9688 23.082 5.832 20.168 0 44.66-10.758 70.555-31.371 25.898 20.617 50.387 31.371 70.555 31.371 8.0742 0.13672 16.043-1.875 23.082-5.832l22.73-13.125c22.762-13.141 31.656-47.273 24.676-93.875 43.844-17.254 68.957-42.02 68.957-68.305v-26.25c0-26.285-25.113-51.051-68.957-68.305zm60.207 68.305c0 24.184-26.117 47.254-71.652 63.297-8.7461 3.082-18.359 5.9102-28.578 8.3984-8.1562 1.9922-16.707 3.75-25.398 5.2305l-2.5195 0.42188c-10.633 1.7422-21.516 3.1016-32.34 4.0391-12.926 1.1133-26.262 1.6914-39.637 1.7227-5.9648-7.0117-11.746-14.457-17.266-22.25 5.3789 0.23438 10.773 0.39062 16.141 0.39062 8.3477 0 16.785-0.28125 25.074-0.83594 13.316-0.87109 26.57-2.543 39.684-5.0117l1.3867-0.27344h0.011719c10.031-1.918 19.934-4.4531 29.652-7.5898 1.5117-0.49219 3.0234-0.98828 4.4766-1.5039h0.011719c7.5352-2.6289 14.852-5.8438 21.883-9.6172 9.9023-4.8711 18.508-12.016 25.121-20.848l0.003907-0.007812 0.015624-0.027344 0.039063-0.066406h0.003906c3.6484-5.1719 5.6602-11.324 5.7617-17.656 0-11.215-6.8164-22.031-19.598-31.465 2.4609-8.8203 4.4805-17.469 6.0391-25.832 39.254 15.789 61.684 37.301 61.684 59.484zm-223.57-25.543c14.871-0.89844 29.781-0.89844 44.648 0 4.1055 6.207 8.0742 12.57 11.773 18.98 3.7227 6.4453 7.2461 13.062 10.555 19.688-3.3086 6.625-6.832 13.242-10.555 19.688-3.6992 6.4141-7.6719 12.773-11.773 18.98-14.867 0.89844-29.777 0.89844-44.648 0-4.1055-6.207-8.0742-12.57-11.773-18.98-3.7227-6.4453-7.2461-13.062-10.555-19.688 3.3086-6.625 6.832-13.242 10.555-19.688 3.6992-6.4141 7.668-12.773 11.773-18.98zm153.19 0.85547c6.9414 5.6289 13.512 13.34 13.512 22.5-0.035156 2.5234-0.53516 5.0195-1.4766 7.3633-5.1406-5.3203-11.027-9.8672-17.477-13.492 1.9688-5.4922 3.7812-10.949 5.4414-16.375zm-8.5234 50.914c-1.6641-4.3398-3.418-8.707-5.2617-13.102 1.8516-4.3906 3.6055-8.7578 5.2656-13.102h-0.003906c6 3.4375 11.371 7.8672 15.887 13.102-4.5156 5.2344-9.8867 9.6641-15.887 13.102zm-10.164-2.0352c0.84375 2.1133 1.6289 4.1992 2.4219 6.293-2.207 1.1133-4.4922 2.1914-6.875 3.2305 1.5312-3.1758 3.0078-6.3398 4.4531-9.5234zm19.727-90.422c-1.8828 11.172-4.418 22.227-7.5898 33.102v0.003906c-2.3867 8.2891-5.1914 16.797-8.3281 25.285v0.003906c-2.3281 6.3125-4.9102 12.789-7.6641 19.246-3.8242 8.9648-8.082 18.012-12.605 26.934-0.875 0.29297-1.7383 0.58984-2.625 0.87891-6.4219 2.1055-13.328 3.9844-20.594 5.6289 5.3555-9.6719 10.375-19.453 14.93-29.184 4.668-9.9844 9.0234-20.293 12.941-30.648l0.90234-2.4336c3.1484-8.4922 5.9648-16.973 8.3711-25.203 3.0273-10.375 5.4609-20.398 7.2148-29.793 6.4727-34.625 4.6992-62.922-4.5977-82.012 19.793 11.68 26.961 43.785 19.645 88.191zm-42.641-101.49c20.945 12.09 27.863 46.246 18.988 93.707-1.6992 9.1094-4.0586 18.848-7.0117 28.945-2.3438 8.0312-5.0977 16.312-8.1836 24.629l-0.87891 2.3711c-3.8359 10.141-8.1016 20.242-12.68 30.027-5.4922 11.746-11.656 23.582-18.32 35.188-9.0703 1.6562-18.41 2.9453-27.902 3.8281 2.8945-4.5547 5.7305-9.1484 8.4062-13.785 4.1797-7.2422 8.1523-14.688 11.816-22.133 5.8984-11.969 11.074-24.281 15.5-36.871v-0.011719l0.45703-1.332c3.3555-9.6484 6.1133-19.496 8.2539-29.484 0.32812-1.5547 0.65234-3.1094 0.94141-4.6289v-0.003906c1.4922-7.8398 2.3672-15.785 2.6172-23.762v-0.003907 0.003907c0.73047-11.008-1.1523-22.035-5.4961-32.176v-0.003906c-2.6562-5.793-7.0039-10.648-12.469-13.922-9.7188-5.6094-22.488-5.1094-37.043 1.2422-6.4297-6.5586-12.91-12.637-19.355-18.148 33.293-26.098 63.141-34.773 82.359-23.676zm-45.121 61.508c-3.7891-4.4648-7.6055-8.7656-11.457-12.898 8.3516-3.1953 18.309-5.0273 26.242-0.44922 2.168 1.2891 4.082 2.9727 5.6367 4.957-7.1758 1.793-14.055 4.6211-20.422 8.3906zm24.855-0.34375c2.2969 6.5117 3.4609 13.367 3.4492 20.273-4.5703-0.72266-9.2031-1.3945-13.906-1.9805-2.8672-3.7891-5.7734-7.4922-8.7109-11.109h-0.003906c5.9414-3.4531 12.422-5.8828 19.172-7.1836zm3.2539 29.102c-0.14062 2.4883-0.26953 4.9648-0.56641 7.5664-1.9805-2.9062-3.9805-5.7617-6.0117-8.6016 2.2227 0.32422 4.3945 0.68359 6.5781 1.0352zm-75.023-63.324 0.007813 0.003906c8.7305 7.2148 17.031 14.934 24.863 23.113l0.003906 0.007812c5.9414 6.1641 11.906 12.84 17.73 19.844l0.003907 0.007812c4.3164 5.1914 8.6328 10.664 12.836 16.262 5.8555 7.8047 11.566 16.016 17.023 24.387-0.18359 0.90234-0.35937 1.8008-0.54687 2.7109-1.3945 6.6367-3.2266 13.598-5.4531 20.754-5.6992-9.4844-11.613-18.793-17.785-27.629-6.3438-9.0859-13.094-18.008-20.066-26.527l-1.6562-2.0078c-5.7695-6.957-11.703-13.633-17.641-19.844-7.4805-7.8281-14.949-14.941-22.195-21.145-26.75-22.922-52.141-35.535-73.324-37.027 20.012-11.301 51.398-1.4531 86.199 27.09zm-109.22-13.816c20.949-12.098 53.984-1.0078 90.645 30.406 7.0234 6.0156 14.277 12.926 21.562 20.543 5.793 6.0664 11.59 12.586 17.223 19.379l1.6328 1.9727c6.8281 8.3438 13.445 17.086 19.668 25.992 7.4375 10.652 14.605 21.914 21.309 33.461-3.0977 8.6797-6.6523 17.41-10.637 26.078-2.4883-4.7695-5.0469-9.5156-7.7344-14.172-4.1562-7.2031-8.6172-14.367-13.258-21.297h0.003906c-7.418-11.098-15.496-21.738-24.188-31.863l-0.007813-0.007813-0.92578-1.0703h-0.003906c-6.75-7.8008-13.973-15.18-21.633-22.09-1.0703-0.96094-2.1406-1.918-3.207-2.832l-0.10156-0.089844-0.007813-0.003906-0.003906-0.003906c-6.043-5.2109-12.484-9.9375-19.266-14.141-9.1641-6.1367-19.652-10.016-30.605-11.324h-0.003906-0.058594-0.042968v-0.003906c-6.3086-0.57813-12.652 0.75781-18.191 3.8359-9.7109 5.6055-15.672 16.914-17.449 32.703-8.9062 2.293-17.406 4.8672-25.395 7.6875-5.9492-41.891 1.4688-72.074 20.68-83.16zm30.707 69.832c-5.7461 1.043-11.379 2.1992-16.898 3.4727 1.4102-8.8281 4.8047-18.375 12.73-22.953l0.003906-0.003906c2.2031-1.2344 4.6172-2.0508 7.1172-2.4102-2.0391 7.1172-3.0312 14.492-2.9531 21.891zm12.289-21.793c6.75 1.3008 13.23 3.7266 19.172 7.1797-2.9258 3.6172-5.832 7.3203-8.7148 11.113-4.7031 0.58594-9.3359 1.2578-13.902 1.9805-0.015625-6.9023 1.1484-13.762 3.4453-20.273zm26.727 11.754c2.0664 1.3555 4.1445 2.793 6.2344 4.3398-3.5156 0.26172-6.9922 0.56641-10.473 0.90625 1.4102-1.7852 2.8242-3.5078 4.2383-5.2461zm-92.406 33.379 0.007812-0.003907c10.613-3.9531 21.449-7.2852 32.453-9.9766 8.3516-2.0703 17.125-3.8945 26.062-5.4336 6.6367-1.1367 13.531-2.1445 20.504-2.9844 9.6797-1.168 19.648-2.0078 29.645-2.5508 0.64062 0.5625 1.3008 1.1562 2.0547 1.832 5.0586 4.5352 10.168 9.5977 15.25 15.102-11.086 0.19531-22.109 0.66016-32.812 1.5859-11.035 0.95312-22.141 2.3398-33.012 4.1172l-2.5586 0.42969c-8.8984 1.5156-17.648 3.3164-26.012 5.3555-10.496 2.5625-20.391 5.4727-29.406 8.6484-33.227 11.707-56.844 27.395-68.727 44.992 0.21484-22.984 24.43-45.246 66.551-61.113zm-66.574 87.676c0-24.184 26.117-47.254 71.652-63.297 8.7461-3.082 18.359-5.9102 28.578-8.3984 8.1562-1.9922 16.707-3.75 25.398-5.2305l2.5156-0.42188c10.648-1.7422 21.527-3.1016 32.344-4.0352 12.898-1.1133 26.234-1.6914 39.637-1.7227 5.9648 7.0117 11.746 14.457 17.266 22.25v-0.007812c-13.734-0.59766-27.496-0.44922-41.215 0.44922-13.316 0.87109-26.57 2.543-39.684 5.0117l-1.3945 0.27734h-0.003906v-0.003906c-10.172 1.9492-20.211 4.5312-30.062 7.7227-1.3711 0.44922-2.7383 0.89844-4.0664 1.3711h-0.011719c-7.5352 2.6289-14.852 5.8438-21.883 9.6172-9.9023 4.8711-18.508 12.016-25.121 20.848l-0.003907 0.007812-0.015624 0.027344-0.039063 0.066406c-3.6523 5.1719-5.6641 11.324-5.7656 17.656 0 11.211 6.8164 22.031 19.598 31.461-2.4648 8.8398-4.4844 17.492-6.0391 25.836-39.254-15.789-61.684-37.301-61.684-59.484zm70.387 24.691c-6.9414-5.6328-13.512-13.348-13.512-22.504 0.035156-2.5234 0.53516-5.0195 1.4766-7.3633 5.1406 5.3203 11.027 9.8672 17.477 13.492-1.9648 5.4883-3.7812 10.945-5.4414 16.375zm8.5195-50.918c1.668 4.3398 3.4219 8.707 5.2656 13.102-1.8516 4.3906-3.6055 8.7578-5.2617 13.102-6-3.4375-11.371-7.8672-15.887-13.102 4.5156-5.2344 9.8867-9.6641 15.887-13.102zm10.164 2.0352c-0.84375-2.1133-1.6289-4.1992-2.4258-6.293 2.207-1.1094 4.4922-2.1914 6.875-3.2305-1.5234 3.1758-3 6.3398-4.4453 9.5234zm-19.727 90.422h0.003906c1.8867-11.172 4.418-22.223 7.5898-33.102v-0.003906c2.3945-8.3008 5.1914-16.805 8.3281-25.285v-0.003906c2.3281-6.3125 4.9102-12.789 7.6641-19.246 3.8281-8.9688 8.0859-18.023 12.613-26.949 0.78906-0.26562 1.625-0.54297 2.6133-0.86719 6.4297-2.1055 13.336-3.9844 20.598-5.625-5.3555 9.6758-10.375 19.457-14.93 29.184-4.668 9.9844-9.0234 20.293-12.941 30.648l-0.90234 2.4336c-3.1523 8.5-5.9688 16.98-8.3711 25.199-3.0352 10.379-5.4609 20.402-7.2148 29.793-6.4727 34.625-4.6992 62.922 4.5977 82.012-19.793-11.676-26.961-43.781-19.645-88.188zm42.645 101.49c-20.945-12.09-27.863-46.246-18.988-93.707 1.6992-9.1055 4.0586-18.848 7.0117-28.949 2.3438-8.0234 5.0938-16.305 8.1836-24.629l0.87891-2.3711c3.8359-10.141 8.1016-20.242 12.68-30.027 5.4922-11.742 11.656-23.578 18.316-35.188 9.0703-1.6562 18.41-2.9453 27.906-3.8281-2.8945 4.5547-5.7305 9.1484-8.4062 13.785-4.1797 7.2422-8.1523 14.688-11.816 22.133v0.003906c-5.8984 11.969-11.078 24.281-15.5 36.871v0.011719l-0.45312 1.3125-0.003906 0.019531h-0.003906 0.003906c-3.3555 9.6484-6.1133 19.496-8.2539 29.484-0.32812 1.5547-0.65234 3.1094-0.94141 4.6289v0.003906c-1.4922 7.8398-2.3672 15.785-2.6172 23.762v0.003907-0.003907c-0.73047 11 1.1523 22.016 5.4883 32.152l0.015625 0.035156c2.6523 5.7891 6.9961 10.641 12.461 13.914 4.7188 2.6602 10.059 4.0156 15.469 3.9258 7.4648-0.24219 14.805-2.0039 21.562-5.1797 6.4336 6.5625 12.918 12.645 19.371 18.16-33.297 26.102-63.145 34.773-82.363 23.676zm45.121-61.512c3.7812 4.4609 7.6016 8.7617 11.457 12.898-8.3516 3.1953-18.312 5.0273-26.242 0.44922v0.003906c-2.168-1.2891-4.082-2.9727-5.6406-4.957 7.1797-1.793 14.059-4.6211 20.426-8.3906zm-24.855 0.34375v0.003906c-2.2969-6.5117-3.4609-13.371-3.4453-20.273 4.5703 0.72266 9.2031 1.3945 13.906 1.9805 2.8672 3.7891 5.7734 7.4922 8.7109 11.109-5.9414 3.4531-12.422 5.8828-19.172 7.1836zm-3.2539-29.102c0.14062-2.4883 0.26953-4.9648 0.56641-7.5703 1.9844 2.9102 3.9844 5.7656 6.0117 8.6016-2.2227-0.31641-4.3945-0.67578-6.5781-1.0273zm75.023 63.328-0.007813-0.003906c-8.7305-7.2148-17.035-14.938-24.867-23.117-5.9531-6.1797-11.918-12.859-17.73-19.848l-0.003907-0.007812c-4.3164-5.1914-8.6328-10.664-12.836-16.262-5.8477-7.793-11.555-16.004-17.023-24.387 0.18359-0.90234 0.35937-1.8008 0.54687-2.7109 1.3945-6.6367 3.2266-13.594 5.4531-20.758 5.6992 9.4844 11.613 18.793 17.785 27.629 6.3594 9.0977 13.109 18.02 20.066 26.527l1.6562 2.0078c5.7695 6.957 11.703 13.633 17.641 19.844 7.4805 7.8281 14.949 14.941 22.195 21.145 26.715 22.891 52.086 35.539 73.25 37.062-20.008 11.242-51.359 1.3906-86.125-27.121zm109.22 13.816c-20.949 12.102-53.977 1.0078-90.645-30.406-7.0234-6.0156-14.277-12.926-21.562-20.543-5.793-6.0664-11.59-12.586-17.223-19.379l-1.6328-1.9727c-6.8203-8.332-13.434-17.074-19.668-25.992-7.4375-10.648-14.602-21.906-21.309-33.465 3.0977-8.6758 6.6484-17.406 10.637-26.074 2.4883 4.7695 5.0469 9.5195 7.7344 14.172 4.1562 7.2031 8.6172 14.367 13.258 21.297h-0.003906c7.418 11.098 15.496 21.738 24.188 31.863l0.007813 0.003906 0.92969 1.0703h0.003906l-0.003906 0.003906c6.75 7.8008 13.973 15.18 21.633 22.09 1.1055 0.99219 2.207 1.9844 3.3125 2.9258l0.007812 0.003906c6.043 5.2109 12.484 9.9375 19.266 14.137 9.1641 6.1406 19.652 10.023 30.605 11.328h0.003906c0.94531 0.066406 1.8711 0.097656 2.7852 0.097656v0.003907c5.4258 0.089843 10.777-1.2695 15.508-3.9336 9.7109-5.6055 15.672-16.914 17.449-32.703 8.9062-2.293 17.406-4.8672 25.395-7.6875 5.9492 41.891-1.4688 72.074-20.68 83.16zm-30.707-69.828c5.7344-1.0391 11.367-2.1953 16.898-3.4727-1.4102 8.8281-4.8047 18.375-12.73 22.953h-0.003906c-2.2031 1.2305-4.6172 2.0469-7.1133 2.4023 2.0352-7.1133 3.0273-14.484 2.9492-21.883zm-12.289 21.789c-6.75-1.3008-13.23-3.7305-19.172-7.1836 2.9258-3.6133 5.832-7.3164 8.7188-11.109 4.7031-0.58594 9.3359-1.2578 13.902-1.9805 0.011719 6.9023-1.1523 13.762-3.4492 20.273zm-26.727-11.754c-2.0664-1.3555-4.1445-2.793-6.2344-4.3398 3.5156-0.26172 6.9922-0.56641 10.473-0.90625-1.4102 1.7852-2.8242 3.5078-4.2383 5.2422zm92.406-33.379-0.007812 0.003907c-10.613 3.9531-21.449 7.2852-32.453 9.9766-0.125 0.03125-0.25781 0.058594-0.38672 0.085938l-0.019531 0.003906c-8.2617 2.0352-16.887 3.832-25.656 5.3398-6.6367 1.1367-13.531 2.1445-20.504 2.9844-9.6797 1.168-19.648 2.0078-29.645 2.5508-0.64062-0.5625-1.3008-1.1562-2.0547-1.832-5.0586-4.5352-10.168-9.5977-15.25-15.102 11.07-0.19531 22.09-0.66016 32.812-1.5859 11.043-0.95312 22.148-2.3398 33-4.1172l2.5703-0.42969c8.8984-1.5156 17.648-3.3164 26.012-5.3555 10.496-2.5625 20.391-5.4727 29.406-8.6484 33.227-11.707 56.844-27.395 68.727-44.992-0.21484 22.988-24.43 45.25-66.551 61.117z"/>
    <use x="70" y="625.625" xlink:href="#t"/>
    <use x="86.054688" y="625.625" xlink:href="#b"/>
    <use x="96.839844" y="625.625" xlink:href="#a"/>
    <use x="111.679687" y="625.625" xlink:href="#j"/>
    <use x="126.4375" y="625.625" xlink:href="#d"/>
    <use x="136.894531" y="625.625" xlink:href="#a"/>
    <use x="151.730469" y="625.625" xlink:href="#i"/>
    <use x="175.007812" y="625.625" xlink:href="#h"/>
    <use x="190.664062" y="625.625" xlink:href="#g"/>
    <use x="212.539062" y="625.625" xlink:href="#f"/>
    <use x="229.382812" y="625.625" xlink:href="#e"/>
    <use x="238.902344" y="625.625" xlink:href="#s"/>
    <use x="246.398437" y="625.625" xlink:href="#c"/>
    <use x="261.425781" y="625.625" xlink:href="#b"/>
    <use x="70" y="647.5" xlink:href="#e"/>
    <use x="79.515625" y="647.5" xlink:href="#b"/>
    <use x="90.304688" y="647.5" xlink:href="#c"/>
    <use x="105.332031" y="647.5" xlink:href="#r"/>
    <use x="135.742188" y="647.5" xlink:href="#d"/>
    <use x="146.199219" y="647.5" xlink:href="#q"/>
    <use x="161.773438" y="647.5" xlink:href="#a"/>
    <use x="184.222656" y="647.5" xlink:href="#p"/>
    <use x="202.53125" y="647.5" xlink:href="#c"/>
    <use x="217.558594" y="647.5" xlink:href="#o"/>
    <use x="233.132812" y="647.5" xlink:href="#n"/>
    <use x="256.320312" y="647.5" xlink:href="#m"/>
    <use x="272.355469" y="647.5" xlink:href="#b"/>
    <use x="283.140625" y="647.5" xlink:href="#c"/>
    <use x="298.171875" y="647.5" xlink:href="#l"/>
    <use x="305.667969" y="647.5" xlink:href="#a"/>
    <use x="320.503906" y="647.5" xlink:href="#k"/>
    <use x="333.472656" y="647.5" xlink:href="#d"/>
  </g>
</svg>
